# xmcd
#
# Track frame offsets:
# 150
# 20453
# 35613
# 48138
# 63415
# 81441
# 100915
# 120349
# 136093
# 155719
# 172193
# 189149
# 202458
# 219008
# 233888
# 251278
# 268539
# 286215
# 302873
# 316411
#
# Disc length: 4438 seconds
#
#
# Revision: 0
# Processed by: cddbd v1.5.1PL0 Copyright (c) Steve Scherf et al.
# Submitted via: FreeRIP 2.80 
#
DISCID=17115414
DTITLE=various artists  - Saloon Tunes 25
DYEAR=1900
DGENRE=country
TTITLE0=Alan Jackson - The Blues Man
TTITLE1=Amanda Scott - Black Is Black
TTITLE2=Blackhawk - I Need You All The Time
TTITLE3=Chad Brock - Yes
TTITLE4=Clay Davidson - Unconditional
TTITLE5=Dixie chicks - Goodbye Earl
TTITLE6=Jason Sellers - Can't Help Calling Your Name
TTITLE7=John Berry and Wynonna - We Can't Unmake Love
TTITLE8=Keith Harding - As If
TTITLE9=Lila McCann - Kiss Me Now
TTITLE10=Lorrie Morgan - To Get To You
TTITLE11=Mark Bryan - Drinkin You Pretty
TTITLE12=Mark Wills - Almost Doesn't Count
TTITLE13=Neal McCoy - Forever Works For Me
TTITLE14=Shane Minor - I Think You're Beautiful
TTITLE15=Shirley Myers/ I'm Missing You
TTITLE16=Steve Wariner - Faith In Love
TTITLE17=The Judds/ Stuck In Love
TTITLE18=Elvis Presley - Can't Help Falling In Love
TTITLE19=Kenny Rogers - Lucille
EXTD=
EXTT0=
EXTT1=
EXTT2=
EXTT3=
EXTT4=
EXTT5=
EXTT6=
EXTT7=
EXTT8=
EXTT9=
EXTT10=
EXTT11=
EXTT12=
EXTT13=
EXTT14=
EXTT15=
EXTT16=
EXTT17=
EXTT18=
EXTT19=
PLAYORDER=
